<mxfile host="app.diagrams.net" agent="Mozilla/5.0 (Windows NT 10.0; Win64; x64) AppleWebKit/537.36 (KHTML, like Gecko) Chrome/129.0.0.0 Safari/537.36 Edg/129.0.0.0" version="24.7.16">
  <diagram name="Trang-1" id="nsEsu8ThD7_Dd7UnVH-d">
    <mxGraphModel dx="2063" dy="837" grid="1" gridSize="10" guides="1" tooltips="1" connect="1" arrows="1" fold="1" page="1" pageScale="1" pageWidth="1169" pageHeight="1654" math="0" shadow="0">
      <root>
        <mxCell id="0" />
        <mxCell id="1" parent="0" />
        <mxCell id="ZPvLfsi6Uy6n08UqW7qO-17" style="edgeStyle=none;shape=connector;rounded=0;orthogonalLoop=1;jettySize=auto;html=1;exitX=0.5;exitY=0;exitDx=0;exitDy=0;exitPerimeter=0;entryX=0;entryY=1;entryDx=0;entryDy=0;strokeColor=default;align=center;verticalAlign=middle;fontFamily=Helvetica;fontSize=11;fontColor=default;labelBackgroundColor=default;endArrow=classic;" edge="1" parent="1" source="ZPvLfsi6Uy6n08UqW7qO-1" target="ZPvLfsi6Uy6n08UqW7qO-4">
          <mxGeometry relative="1" as="geometry" />
        </mxCell>
        <mxCell id="ZPvLfsi6Uy6n08UqW7qO-20" style="edgeStyle=none;shape=connector;rounded=0;orthogonalLoop=1;jettySize=auto;html=1;exitX=0.5;exitY=0.5;exitDx=0;exitDy=0;exitPerimeter=0;entryX=0;entryY=0.5;entryDx=0;entryDy=0;strokeColor=default;align=center;verticalAlign=middle;fontFamily=Helvetica;fontSize=11;fontColor=default;labelBackgroundColor=default;endArrow=classic;" edge="1" parent="1" source="ZPvLfsi6Uy6n08UqW7qO-1" target="ZPvLfsi6Uy6n08UqW7qO-10">
          <mxGeometry relative="1" as="geometry" />
        </mxCell>
        <mxCell id="ZPvLfsi6Uy6n08UqW7qO-22" style="edgeStyle=none;shape=connector;rounded=0;orthogonalLoop=1;jettySize=auto;html=1;exitX=0.5;exitY=0.5;exitDx=0;exitDy=0;exitPerimeter=0;entryX=0;entryY=0;entryDx=0;entryDy=0;strokeColor=default;align=center;verticalAlign=middle;fontFamily=Helvetica;fontSize=11;fontColor=default;labelBackgroundColor=default;endArrow=classic;" edge="1" parent="1" source="ZPvLfsi6Uy6n08UqW7qO-1" target="ZPvLfsi6Uy6n08UqW7qO-9">
          <mxGeometry relative="1" as="geometry" />
        </mxCell>
        <mxCell id="ZPvLfsi6Uy6n08UqW7qO-39" style="edgeStyle=none;shape=connector;rounded=0;orthogonalLoop=1;jettySize=auto;html=1;exitX=0.5;exitY=0.5;exitDx=0;exitDy=0;exitPerimeter=0;entryX=0;entryY=0.5;entryDx=0;entryDy=0;strokeColor=default;align=center;verticalAlign=middle;fontFamily=Helvetica;fontSize=11;fontColor=default;labelBackgroundColor=default;endArrow=classic;" edge="1" parent="1" source="ZPvLfsi6Uy6n08UqW7qO-1" target="ZPvLfsi6Uy6n08UqW7qO-38">
          <mxGeometry relative="1" as="geometry" />
        </mxCell>
        <mxCell id="ZPvLfsi6Uy6n08UqW7qO-48" style="edgeStyle=none;shape=connector;rounded=0;orthogonalLoop=1;jettySize=auto;html=1;exitX=0.5;exitY=0.5;exitDx=0;exitDy=0;exitPerimeter=0;strokeColor=default;align=center;verticalAlign=middle;fontFamily=Helvetica;fontSize=11;fontColor=default;labelBackgroundColor=default;endArrow=classic;" edge="1" parent="1" source="ZPvLfsi6Uy6n08UqW7qO-1" target="ZPvLfsi6Uy6n08UqW7qO-27">
          <mxGeometry relative="1" as="geometry" />
        </mxCell>
        <mxCell id="ZPvLfsi6Uy6n08UqW7qO-1" value="Guest" style="shape=umlActor;verticalLabelPosition=bottom;verticalAlign=top;html=1;outlineConnect=0;" vertex="1" parent="1">
          <mxGeometry x="70" y="550" width="30" height="60" as="geometry" />
        </mxCell>
        <mxCell id="ZPvLfsi6Uy6n08UqW7qO-4" value="đăng kí" style="ellipse;whiteSpace=wrap;html=1;aspect=fixed;" vertex="1" parent="1">
          <mxGeometry x="45" y="350" width="80" height="80" as="geometry" />
        </mxCell>
        <mxCell id="ZPvLfsi6Uy6n08UqW7qO-5" value="đăng nhập" style="ellipse;whiteSpace=wrap;html=1;aspect=fixed;" vertex="1" parent="1">
          <mxGeometry x="190" y="350" width="80" height="80" as="geometry" />
        </mxCell>
        <mxCell id="ZPvLfsi6Uy6n08UqW7qO-9" value="tìm truyện" style="ellipse;whiteSpace=wrap;html=1;aspect=fixed;" vertex="1" parent="1">
          <mxGeometry x="360" y="700" width="80" height="80" as="geometry" />
        </mxCell>
        <mxCell id="ZPvLfsi6Uy6n08UqW7qO-10" value="đọc truyện" style="ellipse;whiteSpace=wrap;html=1;aspect=fixed;" vertex="1" parent="1">
          <mxGeometry x="410" y="400" width="80" height="80" as="geometry" />
        </mxCell>
        <mxCell id="ZPvLfsi6Uy6n08UqW7qO-18" style="edgeStyle=none;shape=connector;rounded=0;orthogonalLoop=1;jettySize=auto;html=1;exitX=0.5;exitY=0;exitDx=0;exitDy=0;exitPerimeter=0;entryX=0.01;entryY=0.727;entryDx=0;entryDy=0;entryPerimeter=0;strokeColor=default;align=center;verticalAlign=middle;fontFamily=Helvetica;fontSize=11;fontColor=default;labelBackgroundColor=default;endArrow=classic;" edge="1" parent="1" source="ZPvLfsi6Uy6n08UqW7qO-1" target="ZPvLfsi6Uy6n08UqW7qO-5">
          <mxGeometry relative="1" as="geometry" />
        </mxCell>
        <mxCell id="ZPvLfsi6Uy6n08UqW7qO-27" value="bình luận" style="ellipse;whiteSpace=wrap;html=1;aspect=fixed;fontFamily=Helvetica;fontSize=11;fontColor=default;labelBackgroundColor=default;" vertex="1" parent="1">
          <mxGeometry x="380" y="600" width="80" height="80" as="geometry" />
        </mxCell>
        <mxCell id="ZPvLfsi6Uy6n08UqW7qO-29" value="thêm vào thư viện" style="ellipse;whiteSpace=wrap;html=1;aspect=fixed;fontFamily=Helvetica;fontSize=11;fontColor=default;labelBackgroundColor=default;" vertex="1" parent="1">
          <mxGeometry x="610" y="680" width="80" height="80" as="geometry" />
        </mxCell>
        <mxCell id="ZPvLfsi6Uy6n08UqW7qO-31" value="tìm kiếm theo bộ lọc" style="ellipse;whiteSpace=wrap;html=1;aspect=fixed;fontFamily=Helvetica;fontSize=11;fontColor=default;labelBackgroundColor=default;" vertex="1" parent="1">
          <mxGeometry x="380" y="980" width="80" height="80" as="geometry" />
        </mxCell>
        <mxCell id="ZPvLfsi6Uy6n08UqW7qO-34" value="đánh giá truyện" style="ellipse;whiteSpace=wrap;html=1;aspect=fixed;fontFamily=Helvetica;fontSize=11;fontColor=default;labelBackgroundColor=default;" vertex="1" parent="1">
          <mxGeometry x="585" y="340" width="80" height="80" as="geometry" />
        </mxCell>
        <mxCell id="ZPvLfsi6Uy6n08UqW7qO-37" value="xem thư viện truyện đã lưu" style="ellipse;whiteSpace=wrap;html=1;aspect=fixed;fontFamily=Helvetica;fontSize=11;fontColor=default;labelBackgroundColor=default;" vertex="1" parent="1">
          <mxGeometry x="640" y="780" width="80" height="80" as="geometry" />
        </mxCell>
        <mxCell id="ZPvLfsi6Uy6n08UqW7qO-38" value="thể loại truyện" style="ellipse;whiteSpace=wrap;html=1;aspect=fixed;fontFamily=Helvetica;fontSize=11;fontColor=default;labelBackgroundColor=default;" vertex="1" parent="1">
          <mxGeometry x="390" y="520" width="80" height="80" as="geometry" />
        </mxCell>
        <mxCell id="ZPvLfsi6Uy6n08UqW7qO-44" style="edgeStyle=none;shape=connector;rounded=0;orthogonalLoop=1;jettySize=auto;html=1;exitX=0.5;exitY=0;exitDx=0;exitDy=0;exitPerimeter=0;strokeColor=default;align=center;verticalAlign=middle;fontFamily=Helvetica;fontSize=11;fontColor=default;labelBackgroundColor=default;endArrow=classic;" edge="1" parent="1" source="ZPvLfsi6Uy6n08UqW7qO-40" target="ZPvLfsi6Uy6n08UqW7qO-43">
          <mxGeometry relative="1" as="geometry" />
        </mxCell>
        <mxCell id="ZPvLfsi6Uy6n08UqW7qO-45" style="edgeStyle=none;shape=connector;rounded=0;orthogonalLoop=1;jettySize=auto;html=1;exitX=0.25;exitY=0.1;exitDx=0;exitDy=0;exitPerimeter=0;entryX=0.5;entryY=1;entryDx=0;entryDy=0;strokeColor=default;align=center;verticalAlign=middle;fontFamily=Helvetica;fontSize=11;fontColor=default;labelBackgroundColor=default;endArrow=classic;" edge="1" parent="1" source="ZPvLfsi6Uy6n08UqW7qO-40" target="ZPvLfsi6Uy6n08UqW7qO-10">
          <mxGeometry relative="1" as="geometry" />
        </mxCell>
        <mxCell id="ZPvLfsi6Uy6n08UqW7qO-49" style="edgeStyle=none;shape=connector;rounded=0;orthogonalLoop=1;jettySize=auto;html=1;exitX=0.25;exitY=0.1;exitDx=0;exitDy=0;exitPerimeter=0;strokeColor=default;align=center;verticalAlign=middle;fontFamily=Helvetica;fontSize=11;fontColor=default;labelBackgroundColor=default;endArrow=classic;" edge="1" parent="1" source="ZPvLfsi6Uy6n08UqW7qO-40" target="ZPvLfsi6Uy6n08UqW7qO-34">
          <mxGeometry relative="1" as="geometry" />
        </mxCell>
        <mxCell id="ZPvLfsi6Uy6n08UqW7qO-54" style="edgeStyle=none;shape=connector;rounded=0;orthogonalLoop=1;jettySize=auto;html=1;exitX=0.5;exitY=0.5;exitDx=0;exitDy=0;exitPerimeter=0;entryX=1;entryY=0;entryDx=0;entryDy=0;strokeColor=default;align=center;verticalAlign=middle;fontFamily=Helvetica;fontSize=11;fontColor=default;labelBackgroundColor=default;endArrow=classic;" edge="1" parent="1" source="ZPvLfsi6Uy6n08UqW7qO-40" target="ZPvLfsi6Uy6n08UqW7qO-9">
          <mxGeometry relative="1" as="geometry" />
        </mxCell>
        <mxCell id="ZPvLfsi6Uy6n08UqW7qO-56" style="edgeStyle=none;shape=connector;rounded=0;orthogonalLoop=1;jettySize=auto;html=1;exitX=0.5;exitY=0.5;exitDx=0;exitDy=0;exitPerimeter=0;entryX=1;entryY=0;entryDx=0;entryDy=0;strokeColor=default;align=center;verticalAlign=middle;fontFamily=Helvetica;fontSize=11;fontColor=default;labelBackgroundColor=default;endArrow=classic;" edge="1" parent="1" source="ZPvLfsi6Uy6n08UqW7qO-40" target="ZPvLfsi6Uy6n08UqW7qO-37">
          <mxGeometry relative="1" as="geometry" />
        </mxCell>
        <mxCell id="ZPvLfsi6Uy6n08UqW7qO-57" style="edgeStyle=none;shape=connector;rounded=0;orthogonalLoop=1;jettySize=auto;html=1;exitX=0.5;exitY=0.5;exitDx=0;exitDy=0;exitPerimeter=0;entryX=1;entryY=0.5;entryDx=0;entryDy=0;strokeColor=default;align=center;verticalAlign=middle;fontFamily=Helvetica;fontSize=11;fontColor=default;labelBackgroundColor=default;endArrow=classic;" edge="1" parent="1" source="ZPvLfsi6Uy6n08UqW7qO-40" target="ZPvLfsi6Uy6n08UqW7qO-27">
          <mxGeometry relative="1" as="geometry" />
        </mxCell>
        <mxCell id="ZPvLfsi6Uy6n08UqW7qO-40" value="member" style="shape=umlActor;verticalLabelPosition=bottom;verticalAlign=top;html=1;outlineConnect=0;fontFamily=Helvetica;fontSize=11;fontColor=default;labelBackgroundColor=default;" vertex="1" parent="1">
          <mxGeometry x="870" y="550" width="30" height="60" as="geometry" />
        </mxCell>
        <mxCell id="ZPvLfsi6Uy6n08UqW7qO-43" value="đăng xuất" style="ellipse;whiteSpace=wrap;html=1;aspect=fixed;fontFamily=Helvetica;fontSize=11;fontColor=default;labelBackgroundColor=default;" vertex="1" parent="1">
          <mxGeometry x="790" y="390" width="80" height="80" as="geometry" />
        </mxCell>
        <mxCell id="ZPvLfsi6Uy6n08UqW7qO-46" style="edgeStyle=none;shape=connector;rounded=0;orthogonalLoop=1;jettySize=auto;html=1;exitX=0.25;exitY=0.1;exitDx=0;exitDy=0;exitPerimeter=0;entryX=0.931;entryY=0.318;entryDx=0;entryDy=0;entryPerimeter=0;strokeColor=default;align=center;verticalAlign=middle;fontFamily=Helvetica;fontSize=11;fontColor=default;labelBackgroundColor=default;endArrow=classic;" edge="1" parent="1" source="ZPvLfsi6Uy6n08UqW7qO-40" target="ZPvLfsi6Uy6n08UqW7qO-38">
          <mxGeometry relative="1" as="geometry" />
        </mxCell>
        <mxCell id="ZPvLfsi6Uy6n08UqW7qO-53" style="edgeStyle=none;shape=connector;rounded=0;orthogonalLoop=1;jettySize=auto;html=1;exitX=0.5;exitY=1;exitDx=0;exitDy=0;entryX=0.342;entryY=0.066;entryDx=0;entryDy=0;entryPerimeter=0;strokeColor=default;align=center;verticalAlign=middle;fontFamily=Helvetica;fontSize=11;fontColor=default;labelBackgroundColor=default;endArrow=classic;" edge="1" parent="1" source="ZPvLfsi6Uy6n08UqW7qO-9" target="ZPvLfsi6Uy6n08UqW7qO-31">
          <mxGeometry relative="1" as="geometry" />
        </mxCell>
        <mxCell id="ZPvLfsi6Uy6n08UqW7qO-55" style="edgeStyle=none;shape=connector;rounded=0;orthogonalLoop=1;jettySize=auto;html=1;exitX=0.5;exitY=0.5;exitDx=0;exitDy=0;exitPerimeter=0;entryX=0.986;entryY=0.326;entryDx=0;entryDy=0;entryPerimeter=0;strokeColor=default;align=center;verticalAlign=middle;fontFamily=Helvetica;fontSize=11;fontColor=default;labelBackgroundColor=default;endArrow=classic;" edge="1" parent="1" source="ZPvLfsi6Uy6n08UqW7qO-40" target="ZPvLfsi6Uy6n08UqW7qO-29">
          <mxGeometry relative="1" as="geometry" />
        </mxCell>
      </root>
    </mxGraphModel>
  </diagram>
</mxfile>
